<?xml version="1.0" encoding="utf-8"?>
<!-- Generator: Adobe Illustrator 25.0.0, SVG Export Plug-In . SVG Version: 6.00 Build 0)  -->
<svg version="1.1" id="Layer_1" xmlns="http://www.w3.org/2000/svg" xmlns:xlink="http://www.w3.org/1999/xlink" x="0px" y="0px"
	 viewBox="0 0 255 110" style="enable-background:new 0 0 255 110;" xml:space="preserve">
<style type="text/css">
	.st0{fill:#808184;}
	.st1{fill:#01A2CB;}
	.st2{fill:#2CA8E0;}
	.st3{fill:#056A38;}
	.st4{fill:#145E7A;}
</style>
<g>
	<path class="st0" d="M63.8,52.6v12.2c-0.8-0.5-1.5-0.7-2.2-0.7c-2.1,0-3.1,1.6-3.1,4.8v14.5H47.1V66.8c0-4.4,1.2-7.9,3.6-10.5
		c2.4-2.6,5.6-3.9,9.6-3.9C61.2,52.3,62.4,52.4,63.8,52.6z"/>
	<path class="st0" d="M78.6,52.9v30.5H67.2V52.9H78.6z"/>
	<path class="st0" d="M96.1,97.3H84.7v-28c0-4.7,1.2-8.5,3.7-11.4c1.4-1.7,3.2-3,5.4-4c2.2-1,4.4-1.5,6.7-1.5
		c4.5,0,8.4,1.5,11.5,4.6c3.1,3.1,4.7,6.8,4.7,11.3c0,4.3-1.5,8.1-4.6,11.2c-3.1,3.1-6.8,4.7-11,4.7c-0.7,0-1.7-0.1-3.1-0.2V71.3
		c0.9,0.8,1.9,1.1,2.8,1.1c1.2,0,2.2-0.4,3-1.3c0.8-0.9,1.3-1.9,1.3-3.1c0-1.2-0.4-2.2-1.3-3.1c-0.9-0.8-1.9-1.3-3.2-1.3
		c-2.9,0-4.4,2-4.4,6.1L96.1,97.3L96.1,97.3z"/>
	<path class="st0" d="M133,41.7v41.7h-11.4V41.7H133z"/>
	<path class="st0" d="M169.7,70h-17.3c-0.3-0.9-0.4-1.7-0.4-2.4c0-1,0.2-2,0.5-3h5.8c-0.4-2.3-1.7-3.4-3.8-3.4
		c-1.4,0-2.6,0.6-3.5,1.8c-0.9,1.2-1.3,2.8-1.3,4.7c0,2,0.4,3.6,1.3,4.8s2,1.8,3.4,1.8c1.1,0,2.2-0.6,3.3-1.7l6.5,7.8
		c-3,2.4-6.4,3.6-10.1,3.6c-4.5,0-8.3-1.5-11.4-4.6c-3.1-3-4.6-6.8-4.6-11.3c0-4.5,1.6-8.2,4.7-11.3c3.1-3.1,6.9-4.6,11.5-4.6
		c4.4,0,8.1,1.5,11.1,4.5s4.5,6.7,4.5,11.1C169.8,68.3,169.8,69.1,169.7,70z"/>
	<g>
		<g>
			<path class="st1" d="M50.5,8v6.1h5.4V8H50.5z M55.9,14.1v6.1h5.4v-6.1H55.9z M50.5,14.1H45V8H2.6v18.3h20.1v57.1h18.6V26.3h14.7
				v-6.1h-5.4L50.5,14.1L50.5,14.1z"/>
		</g>
		<rect x="64.2" y="20.2" class="st1" width="5.4" height="6.1"/>
		<rect x="55.9" y="14.2" class="st1" width="5.4" height="6.1"/>
		<rect x="50.5" y="8" class="st1" width="5.4" height="6.1"/>
		<rect x="65.8" y="8" class="st1" width="5.4" height="6.1"/>
		<rect x="73.1" y="14.1" class="st1" width="5.4" height="6.1"/>
		<rect x="79.7" y="8" class="st1" width="5.4" height="6.1"/>
	</g>
	<circle class="st2" cx="73" cy="46.3" r="4.3"/>
	<g>
		<path class="st2" d="M188.2,68.5c-6,3.2-11.6,6.9-14.6,13.4c-2.6,5.7-0.7,11.6,4.6,14.9c6.5,4.1,13.8,4.8,21.1,4.6
			c13.5-0.3,26.2-3.6,38-10.2c5.3-3,9.5-7.1,13-12.1c4-5.8,2.5-12.5-3.7-16.3c-3.9-2.4-10.1-4.1-16.1-4.1c3.3,1.3,6,2.1,8.5,3.3
			c7.1,3.4,8.5,9.6,3.6,15.9c-4.6,6-11,9.5-17.9,12.1c-9,3.5-18.3,4.8-27.9,4.3c-4-0.2-7.9-1.2-11.6-3.1c-6.3-3.3-7.9-9.3-4-15.3
			C183.1,73.1,185.8,71,188.2,68.5z"/>
	</g>
	<g>
		<path class="st3" d="M225.9,66c0,3.7-1.1,7.2-3.4,10.4c-2.3,3.2-5.1,5.4-8.6,6.6c-1.9,0.6-3.8,1-5.7,1h-13.8V48h13.8
			c3.4,0,6.5,0.9,9.4,2.8c2.8,1.8,5,4.3,6.5,7.3C225.2,60.7,225.9,63.3,225.9,66z M216.2,66c0-2.5-0.7-4.6-2.1-6.5
			c-1.8-2.4-4.6-3.7-8.3-3.7h-2.1v20.4h2.1c3.7,0,6.4-1.2,8.3-3.7C215.5,70.6,216.2,68.5,216.2,66z"/>
	</g>
	<g>
		<rect x="223.2" y="47.5" class="st3" width="3.3" height="3.8"/>
		<rect x="218.1" y="43.7" class="st3" width="3.3" height="3.8"/>
		<rect x="214.8" y="40" class="st3" width="3.3" height="3.8"/>
		<rect x="224.2" y="40" class="st3" width="3.3" height="3.8"/>
		<rect x="228.7" y="43.7" class="st3" width="3.3" height="3.8"/>
		<rect x="232.8" y="40" class="st3" width="3.3" height="3.8"/>
	</g>
	<g>
		<path class="st4" d="M102.8,88.4H101v10.8h-1V88.4h-1.8v-0.9h4.7L102.8,88.4L102.8,88.4z"/>
		<path class="st4" d="M108,98.3c0,0.6-0.3,0.8-0.8,0.8h-2.4c-0.6,0-0.8-0.3-0.8-0.8v-5.6c0-0.6,0.3-0.8,0.8-0.8h2.4
			c0.6,0,0.8,0.3,0.8,0.8v2.6l-0.3,0.4h-2.8v2.6h2.1V97h1L108,98.3L108,98.3z M107,94.9v-2.2h-2.1v2.2H107z"/>
		<path class="st4" d="M113.7,98.3c0,0.6-0.3,0.8-0.8,0.8h-2.4c-0.6,0-0.8-0.3-0.8-0.8v-5.6c0-0.6,0.3-0.8,0.8-0.8h2.4
			c0.6,0,0.8,0.3,0.8,0.8v1.5h-1v-1.4h-2.1v5.5h2.1v-1.6h1V98.3z"/>
		<path class="st4" d="M119.5,99.2h-1v-6.4l-2.2,0.1v6.3h-1V87.4h1v4.6c0.4-0.1,0.8-0.1,1.2-0.2c0.5-0.1,0.9-0.1,1.2-0.1
			c0.6,0,0.8,0.3,0.8,0.8L119.5,99.2L119.5,99.2z"/>
		<path class="st4" d="M125.3,99.2h-1v-6.4l-2.2,0.1v6.3h-1v-7.3h1v0.2c0.4-0.1,0.8-0.1,1.2-0.2c0.5-0.1,0.9-0.1,1.2-0.1
			c0.6,0,0.8,0.3,0.8,0.8L125.3,99.2L125.3,99.2z"/>
		<path class="st4" d="M131.1,98.3c0,0.6-0.3,0.8-0.8,0.8h-2.5c-0.6,0-0.8-0.3-0.8-0.8v-5.6c0-0.6,0.3-0.8,0.8-0.8h2.5
			c0.6,0,0.8,0.3,0.8,0.8V98.3z M130.1,98.3v-5.5h-2.2v5.5H130.1z"/>
		<path class="st4" d="M133.8,99.2h-1V87.4h1V99.2z"/>
		<path class="st4" d="M139.7,98.3c0,0.6-0.3,0.8-0.8,0.8h-2.5c-0.6,0-0.8-0.3-0.8-0.8v-5.6c0-0.6,0.3-0.8,0.8-0.8h2.5
			c0.6,0,0.8,0.3,0.8,0.8V98.3z M138.7,98.3v-5.5h-2.2v5.5H138.7z"/>
		<path class="st4" d="M145.5,101.1c0,0.6-0.3,0.8-0.8,0.8h-2.4c-0.6,0-0.9-0.4-0.9-1.1c0-0.1,0-0.2,0-0.4c0-0.2,0-0.3,0-0.4h1v1
			h2.1v-1.9h-1.6c-0.4,0-0.8-0.2-1.1-0.4c-0.3-0.3-0.4-0.7-0.4-1.1v-4.3c0-0.4,0.1-0.8,0.4-1.1c0.3-0.3,0.6-0.4,1-0.4
			c0.1,0,0.7,0.1,1.8,0.2v-0.2h1V101.1z M144.5,98.3v-5.5c-0.8-0.1-1.3-0.1-1.4-0.1c-0.5,0-0.8,0.3-0.8,0.8v3.9
			c0,0.6,0.3,0.8,0.8,0.8L144.5,98.3L144.5,98.3z"/>
		<path class="st4" d="M151.2,91.9l-1.8,7.2l-0.7,2.8h-1l0.7-2.8l-1.8-7.2h1l1.2,5.7l1.3-5.7H151.2z"/>
	</g>
</g>
</svg>
